<svg width="118" height="118" viewBox="0 0 118 118" fill="none" xmlns="http://www.w3.org/2000/svg">
<rect width="118" height="118" fill="#1289BD"/>
<path d="M38.2158 32.7821L47.6247 32.8354L47.4165 69.6529C47.3803 73.0278 46.648 75.93 45.2195 78.3594C43.791 80.7718 41.8032 82.6271 39.2561 83.9252C36.7261 85.2064 33.7821 85.8375 30.4242 85.8185C27.3561 85.8011 24.5978 85.24 22.1495 84.1353C19.7183 83.0136 17.7929 81.3663 16.3734 79.1934C14.9538 77.0206 14.2532 74.3234 14.2714 71.1019L23.7059 71.1552C23.7149 72.5701 24.0148 73.7905 24.6056 74.8166C25.2135 75.8428 26.0528 76.6317 27.1236 77.1832C28.1943 77.7347 29.4285 78.0144 30.8262 78.0223C32.3433 78.0309 33.632 77.7228 34.6923 77.0981C35.7528 76.4564 36.5593 75.5064 37.1119 74.2481C37.6815 72.99 37.9801 71.4405 38.0075 69.5997L38.2158 32.7821ZM57.6196 85.2564L57.9157 32.8936L67.4014 32.9472L67.276 55.1145L91.5398 55.2517L91.6652 33.0844L101.176 33.1382L100.88 85.501L91.369 85.4472L91.4948 63.2033L67.231 63.066L67.1052 85.31L57.6196 85.2564Z" fill="white"/>
</svg>
